<?xml version="1.0" encoding="UTF-8" standalone="no"?>
<!-- Generator: Adobe Illustrator 19.0.0, SVG Export Plug-In . SVG Version: 6.00 Build 0)  -->

<svg
   version="1.1"
   id="Layer_1"
   inkscape:version="1.1.1 (3bf5ae0d25, 2021-09-20)"
   sodipodi:docname="favicon2.svg"
   x="0px"
   y="0px"
   viewBox="-9 164.9 154.29506 127.1"
   xml:space="preserve"
   width="154.29506"
   height="127.1"
   xmlns:inkscape="http://www.inkscape.org/namespaces/inkscape"
   xmlns:sodipodi="http://sodipodi.sourceforge.net/DTD/sodipodi-0.dtd"
   xmlns="http://www.w3.org/2000/svg"
   xmlns:svg="http://www.w3.org/2000/svg"><defs
   id="defs16" />
<style
   type="text/css"
   id="style2">
	.st0{fill:#EEEEEE;}
	.st1{enable-background:new    ;}
	.st2{fill:#FF2E63;}
	.st3{font-family:'ArialRoundedMTBold';}
	.st4{font-size:88.0015px;}
	.st5{fill:#FFFFFF;}
	.st6{fill:#00ADB5;}
</style>
<sodipodi:namedview
   inkscape:cy="48.738462"
   inkscape:cx="338.21538"
   inkscape:zoom="1.015625"
   showgrid="false"
   borderopacity="1.0"
   bordercolor="#666666"
   pagecolor="#ffffff"
   id="namedview21"
   inkscape:window-x="-8"
   inkscape:window-height="705"
   inkscape:pagecheckerboard="0"
   inkscape:pageopacity="0"
   inkscape:window-width="1366"
   inkscape:current-layer="Layer_1"
   inkscape:pageshadow="2"
   inkscape:window-maximized="1"
   inkscape:window-y="-8"
   fit-margin-top="0"
   fit-margin-left="0"
   fit-margin-right="0"
   fit-margin-bottom="0">
	</sodipodi:namedview>
<path
   id="path4"
   class="st0"
   d="m 3.45,170.9 c 0,-3.3 2.7,-6 6,-6 h 11.3 c 5.5,0 10.3,3.2 12.6,7.9 h 102 c 6.5,0 11.3,6.2 9.6,12.5 l -10.2,37.8 c -2.1,7.8 -9.2,13.2 -17.3,13.2 h -71.6 l 1.3,7.1 c 0.5,2.8 3,4.8 5.9,4.8 h 71.6 c 3.3,0 6,2.7 6,6 0,3.3 -2.7,6 -6,6 h -71.6 c -8.6,0 -16,-6.1 -17.6,-14.5 l -12.8,-67.3 c -0.2,-0.9 -1,-1.6 -2,-1.6 H 9.45 c -3.3,0 -6,-2.6 -6,-5.9 z m 43.7,97.3 c 6.6,0 11.9,5.3 11.9,11.9 0,6.6 -5.3,11.9 -11.9,11.9 -6.6,0 -11.9,-5.3 -11.9,-11.9 0,-6.6 5.3,-11.9 11.9,-11.9 m 71.5,0 c 6.6,0 11.9,5.3 11.9,11.9 0,6.6 -5.3,11.9 -11.9,11.9 v 0 c -6.6,0 -11.9,-5.3 -11.9,-11.9 0,-6.6 5.3,-11.9 11.9,-11.9"
   inkscape:export-filename="C:\xampp\htdocs\testp\img\g23.png"
   inkscape:export-xdpi="97"
   inkscape:export-ydpi="97"
   style="fill:#000000;fill-opacity:1" />


<path
   id="path14"
   class="st6"
   d="m 21.55,227.3 h -23.4 c -9.4,0 -9.4,12.2 0,12.2 h 23.4 c 9.4,0 9.4,-12.2 0,-12.2 z"
   inkscape:export-filename="C:\xampp\htdocs\testp\img\g23.png"
   inkscape:export-xdpi="97"
   inkscape:export-ydpi="97"
   style="fill:#000000;fill-opacity:1" />
<path
   id="path16"
   class="st2"
   d="m 18.45,207.5 h -20.4 c -9.4,0 -9.4,12.2 0,12.2 h 20.4 c 9.4,0.1 9.4,-12.2 0,-12.2 z"
   inkscape:export-filename="C:\xampp\htdocs\testp\img\g23.png"
   inkscape:export-xdpi="97"
   inkscape:export-ydpi="97"
   style="fill:#000000;fill-opacity:1" />
<path
   id="path18"
   class="st5"
   d="m 14.15,187.4 h -15.9 c -9.5,0 -9.5,12.2 0,12.2 h 15.9 c 9.5,0.1 9.5,-12.2 0,-12.2 z"
   inkscape:export-filename="C:\xampp\htdocs\testp\img\g23.png"
   inkscape:export-xdpi="97"
   inkscape:export-ydpi="97"
   style="fill:#000000;fill-opacity:1" />
</svg>
